<?xml version="1.0" encoding="utf-8"?>
<!-- Generator: Adobe Illustrator 16.0.4, SVG Export Plug-In . SVG Version: 6.00 Build 0)  -->
<!DOCTYPE svg PUBLIC "-//W3C//DTD SVG 1.1//EN" "http://www.w3.org/Graphics/SVG/1.1/DTD/svg11.dtd">
<svg version="1.1" id="Layer_1" xmlns="http://www.w3.org/2000/svg" xmlns:xlink="http://www.w3.org/1999/xlink" x="0px" y="0px"
	 width="220px" height="60px" viewBox="0 0 220 60" enable-background="new 0 0 220 60" xml:space="preserve">
<g>
	<g>
		<g>
			<path fill-rule="evenodd" clip-rule="evenodd" fill="#999999" d="M96.959,26.165h-9.734v-10.16h-8.229v28.002h8.229V33.951h9.734
				v10.056h8.23V16.005h-8.23V26.165z M116.514,16.005l-10.021,28.003h9.328l0.977-3.274h9.777l0.979,3.274h9.328l-10.021-28.004
				L116.514,16.005z M118.998,33.343l2.688-9.026l2.689,9.026H118.998z M156.109,29.271l-9.453-13.267h-8.473v28.002h8.23v-14.19
				l10.02,14.19h7.904V16.005h-8.229V29.271z M209.98,16.004h-10.35l-10.021,28.004h9.33l0.977-3.274h9.777l0.979,3.274H220
				L209.98,16.004z M202.117,33.343l2.688-9.026l2.688,9.026H202.117z M178.154,26.538v-3.144h13.326l2.615-7.39h-24.172v28.001
				h8.23V33.927h9.598l2.615-7.389H178.154z M0,60h12V0H0V60z M51,60h12V0H51V60z"/>
		</g>
	</g>
</g>
<path fill-rule="evenodd" clip-rule="evenodd" fill="#CC1417" d="M24,23h14v14H24V23z"/>
</svg>
